<?xml version="1.0" encoding="UTF-8"?>
<svg viewBox="0 0 60 60" xmlns="http://www.w3.org/2000/svg">
 <path d="m18.397 49.419 2.5268 5.1939 2.9479 0.42113v-16.003l-1.6845-8.0015-4.2113 0.14038 0.42113 18.249z" fill="#b3b3b3" fill-rule="evenodd" stroke="#333" stroke-linecap="round" stroke-linejoin="round" stroke-width="1.875"/>
 <path d="m3.0625 43.312c4.8043-0.26716 6.9062-2.4688 6.9062-2.4688l3.0938 14.906 4.9062 0.6875 1.6875-24.156 2.9375 0.28125 5.3438 5.2188 9.4062-2.9688 1.2812-4.3438 1.0315-9.5312 1.8125-2.25-0.96875-0.5625-2.9688 2.375-3.7369 10.25-2.7633 0.125 1.5312-13.594-6.3125-8.2812-7.2812 1.125s-13.241-5.1156-15.906-5.5312" fill="#ccc" fill-rule="evenodd" stroke="#333" stroke-linecap="round" stroke-linejoin="round" stroke-width="1.875"/>
 <path d="m18.678 10.253-8.563 1.4038-1.2634 12.634 8.7034 8.9841 2.6672-0.98264-1.5442-22.039z" fill="#b3b3b3" fill-rule="evenodd" stroke="#333" stroke-linecap="round" stroke-linejoin="round" stroke-width="1.875"/>
 <path d="m52.56102,49.01655v3.23067h1.42342c.35719,0 .66906-.07464.93562-.22391s.46914-.34652.60775-.59176 .20791-.50912.20791-.79167c0-.51179-.15993-.90896-.4798-1.19151-.31987-.28788-.74369-.43182-1.27148-.43182h-1.42342zm-2.65491,8.07668v-9.10826c0-.4105.13061-.7357.39184-.9756 .26656-.24523.57843-.36785.93562-.36785h3.25467c.69305,0 1.34611.1546 1.9592.46381 .61841.30387 1.11154.75969 1.47939,1.36744 .37318.60242.55977,1.32479.55977,2.16711 0,.77302-.15194,1.4634-.45581,2.07115-.30387.60242-.74903,1.07423-1.33545,1.41542s-1.2928.51179-2.11913.51179h-2.01517v2.45499c0,.46381-.12261.81833-.36785,1.06356-.2399.2399-.55977.35985-.95961.35985-.38917,0-.70904-.12262-.95961-.36785s-.36785-.60242-.36785-1.05557zm-8.87636-3.47057v3.47057c0,.46381-.12262.81833-.36785,1.06356-.2399.2399-.55977.35985-.95961.35985-.38917,0-.70904-.12262-.95961-.36785s-.36785-.60242-.36785-1.05557v-9.12425c0-.45848.12262-.81033.36785-1.05557s.5651-.36785.95961-.36785c.39984,0 .71971.11995.95961.35985 .24523.2399.36785.59442.36785,1.06356v3.18269h4.94197v-3.18269c0-.45848.12262-.81033.36785-1.05557s.5651-.36785.95961-.36785c.39984,0 .7197.11995.95961.35985 .24523.2399.36785.59442.36785,1.06356v9.12425c0,.46381-.12262.81833-.36785,1.06356-.2399.2399-.55977.35985-.95961.35985-.38917,0-.70904-.12262-.95961-.36785s-.36785-.60242-.36785-1.05557v-3.47057h-4.94197zm-9.40414-4.60611v3.23067h1.42341c.35719,0 .66906-.07464.93562-.22391s.46914-.34652.60775-.59176 .20791-.50912.20791-.79167c0-.51179-.15994-.90896-.4798-1.19151-.31987-.28788-.74369-.43182-1.27148-.43182h-1.42341zm-2.65491,8.07668v-9.10826c0-.4105.13061-.7357.39184-.9756 .26656-.24523.57843-.36785.93562-.36785h3.25466c.69305,0 1.34611.1546 1.9592.46381 .61841.30387 1.11154.75969 1.47939,1.36744 .37318.60242.55977,1.32479.55977,2.16711 0,.77302-.15194,1.4634-.45581,2.07115-.30388.60242-.74903,1.07423-1.33545,1.41542s-1.2928.51179-2.11913.51179h-2.01517v2.45499c0,.46381-.12262.81833-.36785,1.06356-.2399.2399-.55977.35985-.95961.35985-.38917,0-.70904-.12262-.95961-.36785s-.36785-.60242-.36785-1.05557z" fill="#333"/>
</svg>
