<?xml version="1.0" encoding="UTF-8"?>
<!DOCTYPE svg PUBLIC "-//W3C//DTD SVG 1.1//EN" "http://www.w3.org/Graphics/SVG/1.1/DTD/svg11.dtd">
<!-- Creator: CorelDRAW 2020 (64-Bit) -->
<svg xmlns="http://www.w3.org/2000/svg" xml:space="preserve" width="41.6667in" height="31.25in" version="1.1" style="shape-rendering:geometricPrecision; text-rendering:geometricPrecision; image-rendering:optimizeQuality; fill-rule:evenodd; clip-rule:evenodd"
viewBox="0 0 41666.66 31249.99"
 xmlns:xlink="http://www.w3.org/1999/xlink"
 xmlns:xodm="http://www.corel.com/coreldraw/odm/2003">
 <defs>
  <style type="text/css">
   <![CDATA[
    .fil0 {fill:#373F47;fill-rule:nonzero}
   ]]>
  </style>
 </defs>
 <g id="Configuration_x0020_Icon">
  <metadata id="CorelCorpID_0Corel-Layer"/>
  <g id="_1854505239968">
   <path class="fil0" d="M30842.1 10007.9l-854.22 -2364.63 -1717.68 620.48c-451.02,-758.83 -1014.01,-1342.71 -1682.82,-1833.89l803.6 -1697.46 -2273.96 -1063.39 -826.93 1717.89c-805.37,-200.35 -1657.48,-242.16 -2529.48,-104.17l-652.5 -1805.99 -2364.66 854.22 652.77 1806.91c-677.56,420.8 -1332.65,1010.56 -1823.31,1678.22l-1693.59 -805.94 -1061.37 2274.11 1705.17 782.44c-199.83,804.08 -256.4,1611.77 -118.41,2483.64l-1827.8 660.4 854.34 2364.69 1828.52 -660.7c450.38,759.23 1025.45,1376.35 1693.1,1867.04l-798.44 1716.94 2278.14 1072.32 775.2 -1696.03c803.96,199.59 1684.41,236.15 2474.53,126.8l628.59 1740.06 2364.71 -854.22 -628.34 -1739.24c758.71,-451.11 1386.75,-1030.2 1877.59,-1697.89l1720.73 796.28 1074.42 -2277.93 -1709.08 -819.85c199.93,-804.06 251.61,-1648.67 112.83,-2520.33l1718.32 -620.78zm-7057.86 4278.35l0 0c-1471.13,531.49 -3094.36,-230.24 -3625.85,-1701.24 -531.37,-1471.07 230.23,-3094.45 1701.33,-3625.89 1471.01,-531.49 3094.33,230.33 3625.74,1701.33 531.37,1471.07 -230.2,3094.37 -1701.21,3625.8z"/>
   <path class="fil0" d="M35336.32 21562.42l118.33 -1401.04 -1014.14 -85.65c-50.19,-508.18 -202.52,-901.37 -426.97,-1306.17l802.19 -664.81 -905.14 -1065.05 -843.88 678.06c-361.6,-289.3 -689.54,-499.19 -1282.16,-642.37l88.38 -1046.45 -1501.12 -126.78 -88.43 1046.96c-307.98,66.61 -835.3,207.98 -1239.65,432.02l-632.63 -799.99 -1049.15 906.97 692.98 778.8c-288.75,360.85 -493.31,723.89 -628.06,1216.46l-1079.02 -91.13 -118.33 1401.05 1079.33 91.16c41.45,608.24 197.94,950.78 421.95,1355.14l-805.34 691.54 904.53 1078.05 712.09 -683.85c361.05,288.77 856.57,519.09 1149.01,636.5l-79.98 947.02 1501.13 126.78 79.95 -946.63c608.24,-41.74 967.02,-196.97 1371.36,-420.89l699.09 805.6 1081.36 -903.76 -670.99 -828.11c288.77,-361.05 506,-672.43 648.68,-1265.12l1014.62 85.69zm-4576.05 552.5l0 0c-869.58,-73.44 -1514.87,-837.79 -1441.44,-1707.28 73.44,-869.58 837.8,-1514.98 1707.38,-1441.54 869.49,73.44 1514.81,837.9 1441.36,1707.48 -73.43,869.49 -837.81,1514.78 -1707.3,1441.35z"/>
   <path class="fil0" d="M19290.38 22288.79l0 -2003.95 -1404.3 0c-131.46,-738.31 -393.24,-1324.69 -758.22,-1869.44l1052.77 -1073.04 -1403.97 -1414.02 -1150.06 1047.36c-544.76,-364.9 -1187.88,-631.67 -1926.16,-763.1l0 -1517.67 -2003.95 0 0 1518.3c-632.83,130.8 -1177.53,393 -1721.21,757.32l-1000.39 -1053.19 -1378.05 1404.6 1067.54 1094.48c-364.33,543.71 -612.8,1130.08 -744.29,1868.39l-1708.09 0 0 2003.95 1708.77 0c130.8,632.8 392.46,1233.7 756.76,1777.33l-1053.88 1029.18 1404.51 1392.13 947.56 -1060.07c543.74,364.18 1087.93,619.53 1720.76,750.42l0 1595.46 2003.95 0 0 -1594.84c738.28,-131.52 1381.4,-393.15 1925.29,-757.44l1102.04 1053.28 1428.28 -1403.97 -1040.3 -1003.44c364.35,-543.92 638.87,-1145.24 769.52,-1778.04l1405.11 0zm-6353.72 1155.74l0 0c-1235.5,0 -2237.09,-1001.35 -2237.09,-2237.03 0,-1235.47 1001.59,-2237.15 2237.09,-2237.15 1235.59,0 2237.12,1001.68 2237.12,2237.15 0,1235.68 -1001.53,2237.03 -2237.12,2237.03z"/>
  </g>
 </g>
</svg>
